<svg xmlns="http://www.w3.org/2000/svg" xmlns:xlink="http://www.w3.org/1999/xlink" width="241.246" height="305.905" viewBox="0 0 241.246 305.905">
  <defs>
    <linearGradient id="linear-gradient" x1="0.307" y1="0.659" x2="0.703" y2="0.167" gradientUnits="objectBoundingBox">
      <stop offset="0"/>
      <stop offset="1" stop-opacity="0"/>
    </linearGradient>
  </defs>
  <g id="Delivery_vector" data-name="Delivery vector" transform="translate(-517.267 -103.079)">
    <g id="Group_8143" data-name="Group 8143" transform="translate(517.267 103.079)">
      <g id="Group_8140" data-name="Group 8140" opacity="0.4">
        <path id="Path_10160" data-name="Path 10160" d="M660.313,130.842H552.07a9.658,9.658,0,0,1,15.214-7.9,20.89,20.89,0,0,1,40.927-4.792,14.569,14.569,0,0,1,10.042-3.994c6.205,0,11.51,5.611,13.636,11.069a23.608,23.608,0,0,1,10.316-2.289C650.54,122.932,657.632,125.209,660.313,130.842Z" transform="translate(-499.422 -103.079)" fill="#fc6011" opacity="0.45"/>
        <g id="Group_8137" data-name="Group 8137" transform="translate(174.456 62.261)" opacity="0.45">
          <g id="Group_8136" data-name="Group 8136">
            <path id="Path_10161" data-name="Path 10161" d="M699.073,163.382a7.553,7.553,0,0,0-7.924-4.056c-.572-1.5-3.779-8.205-13.758-2.581-.791-2-5.305-11.8-15.312-4.919a10.407,10.407,0,0,0-1.915-4.774c-1.844-2.386-4.661-3.263-8.371-2.6-3.358.6-5.606,2.351-6.68,5.217a13.962,13.962,0,0,0-.405,7.189c-2.051.083-11.084.782-12.026,6.671l-.089.557h66.791Z" transform="translate(-632.591 -144.237)" fill="#fc6011"/>
          </g>
        </g>
        <g id="Group_8139" data-name="Group 8139" transform="translate(0 103.769)" opacity="0.45">
          <g id="Group_8138" data-name="Group 8138">
            <path id="Path_10162" data-name="Path 10162" d="M576.833,190.82a6.736,6.736,0,0,0-7.1-4.056c-.511-1.5-3.384-8.205-12.326-2.581-.71-2-4.753-11.8-13.719-4.919a11.16,11.16,0,0,0-1.715-4.774c-1.652-2.386-4.175-3.261-7.5-2.6a7.445,7.445,0,0,0-5.984,5.217,15.514,15.514,0,0,0-.363,7.189c-1.838.083-9.931.782-10.775,6.671l-.08.557H577.11Z" transform="translate(-517.267 -171.675)" fill="#fc6011"/>
          </g>
        </g>
      </g>
      <g id="Group_8141" data-name="Group 8141" transform="translate(10.06 46.193)">
        <path id="Path_10163" data-name="Path 10163" d="M537.326,230.4a13.409,13.409,0,1,1,13.407-13.409A13.424,13.424,0,0,1,537.326,230.4Zm0-22.762a9.353,9.353,0,1,0,9.353,9.353A9.365,9.365,0,0,0,537.326,207.636Z" transform="translate(-523.917 -97.741)" fill="#fc6011"/>
        <path id="Path_10164" data-name="Path 10164" d="M661.477,311.837a25.992,25.992,0,1,1,25.992-25.992A26.022,26.022,0,0,1,661.477,311.837Zm0-47.928a21.936,21.936,0,1,0,21.936,21.936A21.961,21.961,0,0,0,661.477,263.909Z" transform="translate(-466.711 -68.887)" fill="#fc6011"/>
        <path id="Path_10165" data-name="Path 10165" d="M602.329,185.6a25.992,25.992,0,1,1,25.992-25.992A26.022,26.022,0,0,1,602.329,185.6Zm0-47.928a21.936,21.936,0,1,0,21.938,21.936A21.961,21.961,0,0,0,602.329,137.671Z" transform="translate(-497.039 -133.615)" fill="#fc6011"/>
      </g>
      <g id="Group_8142" data-name="Group 8142" transform="translate(21.086 23.75)">
        <path id="Path_10166" data-name="Path 10166" d="M572.736,304.143s.145-11.736,11.736-11.736c0,0-11.736-.145-11.736-11.736,0,0-.145,11.736-11.736,11.736C561,292.407,572.736,292.552,572.736,304.143Z" transform="translate(-515.929 -35.77)" fill="#f9ca24"/>
        <path id="Path_10167" data-name="Path 10167" d="M542.942,159.091s.144-11.734,11.734-11.734c0,0-11.734-.145-11.734-11.736,0,0-.145,11.736-11.736,11.736C531.206,147.357,542.942,147.5,542.942,159.091Z" transform="translate(-531.206 -110.143)" fill="#f9ca24"/>
        <path id="Path_10168" data-name="Path 10168" d="M552.172,309.97s.085-6.892,6.892-6.892c0,0-6.892-.085-6.892-6.891,0,0-.085,6.891-6.891,6.891C545.282,303.078,552.172,303.164,552.172,309.97Z" transform="translate(-523.989 -27.814)" fill="#f9ca24"/>
        <path id="Path_10169" data-name="Path 10169" d="M665.181,242.449s.085-6.891,6.891-6.891c0,0-6.891-.085-6.891-6.892,0,0-.085,6.892-6.892,6.892C658.289,235.558,665.181,235.643,665.181,242.449Z" transform="translate(-466.045 -62.435)" fill="#f9ca24"/>
        <path id="Path_10170" data-name="Path 10170" d="M642.445,132.562s.085-6.892,6.892-6.892c0,0-6.892-.085-6.892-6.891,0,0-.085,6.891-6.891,6.891C635.554,125.67,642.445,125.756,642.445,132.562Z" transform="translate(-477.702 -118.779)" fill="#f9ca24"/>
        <path id="Path_10171" data-name="Path 10171" d="M556.729,172.557s.085-6.891,6.891-6.891c0,0-6.891-.086-6.891-6.892,0,0-.086,6.892-6.892,6.892C549.837,165.666,556.729,165.751,556.729,172.557Z" transform="translate(-521.653 -98.272)" fill="#f9ca24"/>
      </g>
    </g>
    <g id="Group_8151" data-name="Group 8151" transform="translate(526.05 178.117)">
      <path id="Path_10172" data-name="Path 10172" d="M589.858,256.015V245.41h-9.513v11.7l8.548.836Z" transform="translate(-493.707 -105.138)" fill="#ffabab"/>
      <g id="Group_8144" data-name="Group 8144" transform="translate(66.7 148.649)">
        <path id="Path_10173" data-name="Path 10173" d="M599.282,268.484H567.165v-1.635a7.326,7.326,0,0,1,.094-1.153,7.224,7.224,0,0,1,5.234-5.851c5.275-1.47,12.556-4.319,12.464-8.792l.032-.011a4.2,4.2,0,0,1,4.833,2.664l7.414-1.378a51.941,51.941,0,0,1,2.047,13.368C599.314,266.859,599.3,267.815,599.282,268.484Z" transform="translate(-567.165 -250.947)" fill="#fdc349"/>
        <path id="Path_10174" data-name="Path 10174" d="M599.282,263.485H567.165V261.85a7.326,7.326,0,0,1,.094-1.153h32.023C599.314,261.86,599.3,262.816,599.282,263.485Z" transform="translate(-567.165 -245.948)" fill="#dba941"/>
      </g>
      <path id="Path_10175" data-name="Path 10175" d="M653.074,212.865v5.574a10.478,10.478,0,0,1-10.479,10.479h-49.21v40.3H576.86V225.528a12.662,12.662,0,0,1,12.662-12.663Z" transform="translate(-495.494 -121.825)" fill="#29293d"/>
      <g id="Group_8146" data-name="Group 8146" transform="translate(114.598 5.218)">
        <path id="Path_10176" data-name="Path 10176" d="M620.933,180.218a3.8,3.8,0,0,0-.112,1.9l1.383,6.954-10.166,2.039-1.313-7.987c-.823.2-1.675.377-2.555.585-.838.2-1.675.378-2.485.531a2.679,2.679,0,0,1-2.221-.558c-.014,0-.014,0-.027-.014-.168-.2-.336-.392-.517-.6-.014-.014-.027-.029-.027-.042-4.789-5.739-4.455-8.462-3.435-10.641.67-1.423,1.508-2.541,1.508-4.175-.809-5.921,3.407-10.262,8.783-11.632a14.963,14.963,0,0,1,4.2-.433,12.44,12.44,0,0,1,4.119.879h.014a12.688,12.688,0,0,1,2.974,1.663,12.82,12.82,0,0,1,.867,20A3.482,3.482,0,0,0,620.933,180.218Z" transform="translate(-598.828 -156.133)" fill="#ffa9a9"/>
        <path id="Path_10177" data-name="Path 10177" d="M622.595,168.5a12.824,12.824,0,0,1-4.37,10.179,3.483,3.483,0,0,0-.992,1.537l-4.776-4.372s1.815-2.094-.5-5.068c-1.6-2.056-3.071-.5-3.826.652a.4.4,0,0,1-.734-.175,12.283,12.283,0,0,1,1.124-7.71l-2.472-6.968a14.963,14.963,0,0,1,4.2-.433,12.44,12.44,0,0,1,4.119.879h.014l2.974,1.663A12.911,12.911,0,0,1,622.595,168.5Z" transform="translate(-595.127 -156.133)"/>
        <path id="Path_10178" data-name="Path 10178" d="M601.619,165.3c0,.359-.117.649-.262.649s-.262-.29-.262-.649.118-.647.262-.647S601.619,164.944,601.619,165.3Z" transform="translate(-597.666 -151.763)"/>
        <path id="Path_10179" data-name="Path 10179" d="M600.7,163.818s-.218-1.484,2.487-.219" transform="translate(-597.871 -152.566)" fill="none" stroke="#000" stroke-linecap="round" stroke-miterlimit="10" stroke-width="0.25"/>
        <path id="Path_10180" data-name="Path 10180" d="M604.794,168.966l6.673-3.755,1.376,7.119-8.049,5.149" transform="translate(-595.769 -151.478)" fill="none" stroke="#fff" stroke-linecap="round" stroke-miterlimit="10" stroke-width="0.25"/>
        <g id="Group_8145" data-name="Group 8145" transform="translate(14.174 12.121)">
          <path id="Path_10181" data-name="Path 10181" d="M608.2,167.116s2.631-5.019,5.118-2.009.175,10.173-4.363,7.594" transform="translate(-608.198 -164.145)" fill="#ffabab" stroke="#000" stroke-linecap="round" stroke-miterlimit="10" stroke-width="0.25"/>
          <path id="Path_10182" data-name="Path 10182" d="M609.209,169.542s-.219-4.712,2.749-3.8" transform="translate(-607.681 -163.386)" fill="none" stroke="#000" stroke-linecap="round" stroke-miterlimit="10" stroke-width="0.25"/>
          <path id="Path_10183" data-name="Path 10183" d="M610.535,168.693s.5-1.932-.912-2.516" transform="translate(-607.467 -163.104)" fill="none" stroke="#000" stroke-linecap="round" stroke-miterlimit="10" stroke-width="0.25"/>
        </g>
        <path id="Path_10184" data-name="Path 10184" d="M608.171,178.2c-.838.2-1.676.378-2.485.531a2.679,2.679,0,0,1-2.221-.558c-.014,0-.014,0-.027-.014-.168-.2-.336-.392-.517-.6-.014-.014-.027-.029-.027-.042-4.791-5.739-4.455-8.462-3.435-10.641,1.466.182,6.143.74,7.918.7C610.21,167.518,610.921,172.083,608.171,178.2Z" transform="translate(-598.828 -150.624)" fill="#f9ca24"/>
      </g>
      <path id="Path_10185" data-name="Path 10185" d="M624.425,179.515c-4.835-.572-10.512,1.065-15.251,4.786h-.015c-.605.43-1.194.874-1.814,1.352-.97-2.068-3.212-7.316-3.212-7.316l16.4-4.882S622.342,176.27,624.425,179.515Z" transform="translate(-481.51 -142.032)" fill="#cc4e0e"/>
      <g id="Group_8147" data-name="Group 8147" transform="translate(2.789 150.553)">
        <circle id="Ellipse_107" data-name="Ellipse 107" cx="23.318" cy="23.318" r="23.318"/>
        <path id="Path_10207" data-name="Path 10207" d="M13.325,0A13.325,13.325,0,1,1,0,13.325,13.325,13.325,0,0,1,13.325,0Z" transform="translate(9.993 9.993)" fill="#3d3d3d"/>
        <path id="Path_10186" data-name="Path 10186" d="M546.278,269.125a4.441,4.441,0,1,1-4.441-4.441A4.442,4.442,0,0,1,546.278,269.125Z" transform="translate(-518.519 -245.808)" fill="#fff"/>
      </g>
      <path id="Path_10187" data-name="Path 10187" d="M556.47,267.724h-33.4s9.807-26.293,42.275-26.293Z" transform="translate(-523.073 -107.178)" fill="#29293d"/>
      <path id="Path_10188" data-name="Path 10188" d="M622.08,177.2a3.7,3.7,0,0,1-2.817,1.309h-9.037a4.659,4.659,0,0,1-4.659-4.659V160.662h14.755Z" transform="translate(-480.775 -148.592)" fill="#ba7f17"/>
      <path id="Path_10189" data-name="Path 10189" d="M596.775,161.091s-3.4,9.138,3.535,19.608l14.556-5.765-2.519-15.108Z" transform="translate(-485.71 -149.02)" opacity="0.2" fill="url(#linear-gradient)"/>
      <path id="Path_10190" data-name="Path 10190" d="M627.461,158.981a16.535,16.535,0,0,0-25.969,0,17.2,17.2,0,0,0-3.118,5.773h11.769v13.184A4.659,4.659,0,0,0,614.8,182.6h9.037a3.7,3.7,0,0,0,2.817-1.309c2.558-3.006,4.8-6.827,4.8-10.984A17.845,17.845,0,0,0,627.461,158.981Z" transform="translate(-484.463 -152.683)" fill="#e87658"/>
      <path id="Path_10191" data-name="Path 10191" d="M611.676,156.846v5.773h-15.49a.814.814,0,0,1-.318-1.558l6-2.641.1-1.573Z" transform="translate(-485.996 -150.548)" fill="#3c427f"/>
      <path id="Path_10192" data-name="Path 10192" d="M609.48,156.846v4.8a18.066,18.066,0,0,0-9.813-3.228l.1-1.573Z" transform="translate(-483.8 -150.548)" fill="#30336b"/>
      <path id="Path_10193" data-name="Path 10193" d="M605.592,158.241a.6.6,0,1,1-.6-.6A.6.6,0,0,1,605.592,158.241Z" transform="translate(-481.373 -150.139)" fill="#fff"/>
      <path id="Path_10194" data-name="Path 10194" d="M562.531,198.577v16.439a8.458,8.458,0,0,1-6.366-8.213v-.014A8.458,8.458,0,0,1,562.531,198.577Z" transform="translate(-506.105 -129.151)" fill="#f9ca24"/>
      <path id="Path_10195" data-name="Path 10195" d="M581.765,204.486c-1.874,3.054-4.016,6.736-6.275,10.908H562.5a3.766,3.766,0,0,1-.539-.026,7.346,7.346,0,0,1-1.591-.257V198.672a7.253,7.253,0,0,1,1.591-.257,4,4,0,0,1,.539-.024h15.823A4.014,4.014,0,0,1,581.765,204.486Z" transform="translate(-503.948 -129.247)" fill="#3e394f"/>
      <path id="Path_10196" data-name="Path 10196" d="M573.5,209.63c-.732,1.336-1.463,2.735-2.21,4.166h-7.045c.843-1.384,1.7-2.767,2.576-4.166Z" transform="translate(-501.961 -123.484)" fill="#29293d"/>
      <path id="Path_10197" data-name="Path 10197" d="M590.191,216.694c-7.346,10.719-24.856,40-21.738,71.563.174,1.812.43,3.626.747,5.438H547.7a6.4,6.4,0,0,1-6.092-8.4c4.372-13.22,14.764-40.708,34.412-72.907h11.895A2.759,2.759,0,0,1,590.191,216.694Z" transform="translate(-513.736 -122.072)" fill="#3e394f"/>
      <path id="Path_10208" data-name="Path 10208" d="M0,0H1.591V19.775H0Z" transform="translate(56.425 67.758)" fill="#3e394f"/>
      <path id="Path_10198" data-name="Path 10198" d="M653.929,244.975c-14.885-3.753-30.169-14.138-30.169-14.138l1.4-2.591c-3.118-1.7-1.272-5.455-1.4-12.612-.11-7.155-.874-13.421-.874-13.421l-.015.015c-14.218,8.222-46.1,15-46.1,15l-1.861-6.664a194.026,194.026,0,0,0,30.087-13.916c7.713-4.516,12.882-9.494,17.334-13.008.62-.478,1.209-.923,1.814-1.352h.015q.765-.6,1.575-1.145h.017a20.848,20.848,0,0,1,13.66-3.641c1.209,1.876,2.513,3.9,3.609,5.582.94,1.431,1.719,2.625,2.2,3.292a.052.052,0,0,1,.017.032C651.766,194.594,657.03,211.436,653.929,244.975Z" transform="translate(-496.495 -140.016)" fill="#fc6011"/>
      <path id="Path_10199" data-name="Path 10199" d="M566.554,210.719a.645.645,0,0,1-.13-.014.6.6,0,0,1-.454-.713l4.283-19.3a.6.6,0,0,1,1.165.259l-4.283,19.3A.6.6,0,0,1,566.554,210.719Z" transform="translate(-501.085 -133.433)" fill="#3e394f"/>
      <path id="Path_10200" data-name="Path 10200" d="M571.226,209.5h0a2.1,2.1,0,0,1-2.278,2.411c-1.871-.2-4.152-1.316-4.679-5.41-.929-7.207,8.682-8.066,12.258-5.55l5.6-1.788,1.225,5.434-5.567,1.466s-3.013,5.36-5.647,3.437S571.226,209.5,571.226,209.5Z" transform="translate(-501.982 -128.852)" fill="#ffa9a9"/>
      <circle id="Ellipse_109" data-name="Ellipse 109" cx="3.725" cy="3.725" r="3.725" transform="translate(64.231 73.92)" fill="#3e394f"/>
      <path id="Path_10201" data-name="Path 10201" d="M622.886,200.941l-.015.015c-14.218,8.222-46.1,15-46.1,15l-1.861-6.664a194.025,194.025,0,0,0,30.087-13.916c7.713-4.516,12.882-9.494,17.334-13.008.62-.478,1.209-.923,1.814-1.352h.015q.765-.6,1.575-1.145h.017C634.162,185.753,632.6,195.628,622.886,200.941Z" transform="translate(-496.495 -138.744)" fill="#cc4e0e"/>
      <path id="Rectangle_17341" data-name="Rectangle 17341" d="M3.185,0h1.88a0,0,0,0,1,0,0V10.867a0,0,0,0,1,0,0H3.185A3.185,3.185,0,0,1,0,7.682v-4.5A3.185,3.185,0,0,1,3.185,0Z" transform="translate(67.217 50.497)" fill="#3e394f"/>
      <g id="Group_8148" data-name="Group 8148" transform="translate(140.403 150.553)">
        <circle id="Ellipse_110" data-name="Ellipse 110" cx="23.318" cy="23.318" r="23.318"/>
        <circle id="Ellipse_111" data-name="Ellipse 111" cx="13.325" cy="13.325" r="13.325" transform="translate(9.993 9.993)" fill="#3d3d3d"/>
        <circle id="Ellipse_112" data-name="Ellipse 112" cx="4.442" cy="4.442" r="4.442" transform="translate(18.876 18.876)" fill="#fff"/>
      </g>
      <path id="Path_10202" data-name="Path 10202" d="M713.969,284.6H559.991c-.318-1.812-.573-3.626-.747-5.438h52.023s6.786-49.03,22.98-49.03h36.916C709.331,230.129,713.969,284.6,713.969,284.6Z" transform="translate(-504.527 -112.973)" fill="#3e394f"/>
      <path id="Path_10203" data-name="Path 10203" d="M677.273,277.04H608.6a34.407,34.407,0,0,1,68.669,0Z" transform="translate(-479.218 -105.416)" fill="#29293d"/>
      <path id="Path_10204" data-name="Path 10204" d="M621.19,235.486h-13.37a3.129,3.129,0,0,1-3.13-3.13h0a8.1,8.1,0,0,1,8.1-8.1h12.672c13.816,0,7.951-4.573,17.593-4.573h7.8a3.728,3.728,0,0,1,3.727,3.727h0a12.076,12.076,0,0,1-12.076,12.076Z" transform="translate(-481.224 -118.33)" fill="#29293d"/>
      <path id="Rectangle_17342" data-name="Rectangle 17342" d="M14.583,0h36.1a5.667,5.667,0,0,1,5.667,5.667V64.672a0,0,0,0,1,0,0H7.17A7.17,7.17,0,0,1,0,57.5V14.583A14.583,14.583,0,0,1,14.583,0Z" transform="translate(158.541 31.678)" fill="#fc6011"/>
      <path id="Path_10205" data-name="Path 10205" d="M640.521,239.455h-23.2a.962.962,0,0,1,0-1.924h21.277v-8.2a11.506,11.506,0,0,1,11.494-11.492h39.4a.962.962,0,1,1,0,1.924h-39.4a9.579,9.579,0,0,0-9.568,9.568Z" transform="translate(-475.243 -119.275)" fill="#29293d"/>
      <g id="Group_8150" data-name="Group 8150" transform="translate(164.82 42.121)">
        <circle id="Ellipse_113" data-name="Ellipse 113" cx="15.481" cy="15.481" r="15.481" transform="translate(0 21.893) rotate(-45)" fill="#fff"/>
      </g>
      <text id="Meal" transform="translate(175.395 87.867)" fill="#fff" font-size="6" font-family="SegoeUI-Bold, Segoe UI" font-weight="700" letter-spacing="0.034em"><tspan x="-7.267" y="0">Meal</tspan></text>
      <text id="Monkey" transform="translate(194.395 87.867)" fill="#fff" font-size="6" font-family="SegoeUI-Bold, Segoe UI" font-weight="700" letter-spacing="0.034em"><tspan x="-11.902" y="0">Monkey</tspan></text>
    </g>
  </g>
</svg>
