<svg xmlns="http://www.w3.org/2000/svg" xmlns:xlink="http://www.w3.org/1999/xlink" width="225.443" height="294.81" viewBox="0 0 225.443 294.81">
  <defs>
    <clipPath id="clip-path">
      <rect id="Rectangle_17279" data-name="Rectangle 17279" width="50.305" height="50.306" fill="#fc6011"/>
    </clipPath>
    <clipPath id="clip-path-2">
      <rect id="Rectangle_17280" data-name="Rectangle 17280" width="50.305" height="50.305" fill="#fc6011"/>
    </clipPath>
    <clipPath id="clip-path-5">
      <rect id="Rectangle_17285" data-name="Rectangle 17285" width="36.6" height="50.696" fill="#fc6011"/>
    </clipPath>
  </defs>
  <g id="Find_food_you_love_vector" data-name="Find food you love vector" transform="translate(-56.335 -69.12)">
    <path id="Path_2989" data-name="Path 2989" d="M222.19,102.385H134.071a17.089,17.089,0,0,0-17.023,17.031V339.263a17.075,17.075,0,0,0,17.023,17.023H222.19a17.077,17.077,0,0,0,17.03-17.023V119.416a17.09,17.09,0,0,0-17.03-17.031m.339,7.449a9.988,9.988,0,0,1,9.956,9.964V330.521a9.981,9.981,0,0,1-9.956,9.957h-88.4a9.988,9.988,0,0,1-9.963-9.957V119.8a10,10,0,0,1,9.963-9.964Z" transform="translate(14.444 7.228)" fill="#29293d"/>
    <path id="Path_2990" data-name="Path 2990" d="M222.26,102.039H134.141A17.466,17.466,0,0,0,116.7,119.486V339.333a17.459,17.459,0,0,0,17.439,17.439H222.26A17.459,17.459,0,0,0,239.7,339.333V119.486a17.467,17.467,0,0,0-17.439-17.447m16.614,237.294a16.632,16.632,0,0,1-16.614,16.606H134.141a16.624,16.624,0,0,1-16.606-16.606V119.486a16.632,16.632,0,0,1,16.606-16.615H222.26a16.64,16.64,0,0,1,16.614,16.615Z" transform="translate(14.374 7.158)" fill="#ccc"/>
    <path id="Path_2991" data-name="Path 2991" d="M231.288,118.546V329.27a9.98,9.98,0,0,1-9.956,9.956h-88.4a9.988,9.988,0,0,1-9.964-9.956V118.546a9.995,9.995,0,0,1,9.964-9.964h88.4a9.988,9.988,0,0,1,9.956,9.964" transform="translate(15.64 8.48)" fill="#fc6011" opacity="0.3"/>
    <path id="Path_2992" data-name="Path 2992" d="M160.653,109.853a2.59,2.59,0,1,1-2.586,2.6,2.593,2.593,0,0,1,2.586-2.6" transform="translate(22.733 8.737)" fill="#3b414b"/>
    <path id="Path_2993" data-name="Path 2993" d="M178.365,112.176a2.322,2.322,0,1,1-2.319-2.208,2.267,2.267,0,0,1,2.319,2.208" transform="translate(25.897 8.76)" fill="#515760"/>
    <path id="Path_2994" data-name="Path 2994" d="M172.5,111.138v1.309a1.281,1.281,0,0,1-1.285,1.285h-5.08a1.286,1.286,0,0,1-1.285-1.285v-1.309a1.292,1.292,0,0,1,1.285-1.285h5.08a1.286,1.286,0,0,1,1.285,1.285" transform="translate(24.104 8.737)" fill="#1a1f29"/>
    <path id="Path_2995" data-name="Path 2995" d="M164.509,112.7a2.59,2.59,0,1,0-2.594,2.586,2.592,2.592,0,0,0,2.594-2.586m9.341-2.594h-5.081a1.29,1.29,0,0,0-1.284,1.285V112.7a1.284,1.284,0,0,0,1.284,1.284h5.081a1.28,1.28,0,0,0,1.285-1.284V111.4a1.286,1.286,0,0,0-1.285-1.285m-22.03-1.525h39.12s-4.21.73-4.243,4.683-3.356,4.616-6.333,4.616H162.4c-2.975,0-6.29-.671-6.333-4.616s-4.243-4.683-4.243-4.683m28.653,1.666a2.208,2.208,0,1,0,2.321,2.2,2.268,2.268,0,0,0-2.321-2.2" transform="translate(21.47 8.481)" fill="#3e394f"/>
    <path id="Path_2996" data-name="Path 2996" d="M234.149,118.361V329.985h-2.473V119.261a9.987,9.987,0,0,0-9.954-9.964h-88.4a9.995,9.995,0,0,0-9.964,9.964V329.985H121.04V118.361a13.363,13.363,0,0,1,13.319-13.319H220.83a13.352,13.352,0,0,1,13.319,13.319" transform="translate(15.25 7.765)" fill="#3e394f"/>
    <path id="Path_2997" data-name="Path 2997" d="M234.149,292.171v9.234a13.358,13.358,0,0,1-13.319,13.319H134.359a13.369,13.369,0,0,1-13.319-13.319v-9.234h2.319a9.987,9.987,0,0,0,9.964,9.956h88.4a9.979,9.979,0,0,0,9.954-9.956Z" transform="translate(15.25 45.579)" fill="#3e394f"/>
    <g id="Group_2173" data-name="Group 2173" transform="translate(175.832 137.699)" style="mix-blend-mode: multiply;isolation: isolate">
      <g id="Group_2172" data-name="Group 2172">
        <g id="Group_2171" data-name="Group 2171" clip-path="url(#clip-path)">
          <path id="Path_2998" data-name="Path 2998" d="M196.186,176.056h-34.2A8.077,8.077,0,0,1,153.934,168V133.8a8.077,8.077,0,0,1,8.052-8.053h34.2a8.075,8.075,0,0,1,8.052,8.053V168a8.075,8.075,0,0,1-8.052,8.053" transform="translate(-153.934 -125.75)" fill="#fc6011"/>
        </g>
      </g>
    </g>
    <g id="Group_2176" data-name="Group 2176" transform="translate(231.473 136.657)" style="mix-blend-mode: multiply;isolation: isolate">
      <g id="Group_2175" data-name="Group 2175">
        <g id="Group_2174" data-name="Group 2174" clip-path="url(#clip-path-2)">
          <path id="Path_2999" data-name="Path 2999" d="M242.474,175.188h-34.2a8.077,8.077,0,0,1-8.053-8.053v-34.2a8.077,8.077,0,0,1,8.053-8.053h34.2a8.076,8.076,0,0,1,8.053,8.053v34.2a8.076,8.076,0,0,1-8.053,8.053" transform="translate(-200.222 -124.883)" fill="#fc6011"/>
        </g>
      </g>
    </g>
    <g id="Group_2179" data-name="Group 2179" transform="translate(175.832 198.851)" style="mix-blend-mode: multiply;isolation: isolate">
      <g id="Group_2178" data-name="Group 2178" transform="translate(0 0)">
        <g id="Group_2177" data-name="Group 2177" clip-path="url(#clip-path-2)">
          <path id="Path_3000" data-name="Path 3000" d="M196.186,226.926h-34.2a8.077,8.077,0,0,1-8.052-8.053v-34.2a8.077,8.077,0,0,1,8.052-8.053h34.2a8.075,8.075,0,0,1,8.052,8.053v34.2a8.075,8.075,0,0,1-8.052,8.053" transform="translate(-153.934 -176.622)" fill="#fc6011"/>
        </g>
      </g>
    </g>
    <g id="Group_2182" data-name="Group 2182" transform="translate(231.473 197.808)" style="mix-blend-mode: multiply;isolation: isolate">
      <g id="Group_2181" data-name="Group 2181" transform="translate(0 0)">
        <g id="Group_2180" data-name="Group 2180" clip-path="url(#clip-path-2)">
          <path id="Path_3001" data-name="Path 3001" d="M242.474,226.059h-34.2a8.077,8.077,0,0,1-8.053-8.053v-34.2a8.077,8.077,0,0,1,8.053-8.053h34.2a8.076,8.076,0,0,1,8.053,8.053v34.2a8.076,8.076,0,0,1-8.053,8.053" transform="translate(-200.222 -175.754)" fill="#fc6011"/>
        </g>
      </g>
    </g>
    <rect id="Rectangle_17283" data-name="Rectangle 17283" width="38.412" height="2.822" transform="translate(236.812 232.418)" fill="#fff"/>
    <path id="Path_3002" data-name="Path 3002" d="M217.682,185.009a3.135,3.135,0,1,1,3.14,3.13,3.144,3.144,0,0,1-3.14-3.13" transform="translate(34.78 23.292)" fill="#fff"/>
    <path id="Path_3003" data-name="Path 3003" d="M242.12,205.716H205.708s-1.467-17.642,17.96-17.108c11.678.319,15.989,6.414,17.559,11.237a17.337,17.337,0,0,1,.893,5.871" transform="translate(32.355 24.649)" fill="#fff"/>
    <path id="Path_3004" data-name="Path 3004" d="M62.182,165.989l39.195,75.747c4.33,8.368,12.568,13.028,19.564,11.616,5.194-4.895,6.147-14.311,1.818-22.678l-39.2-75.748c-4.33-8.368-12.58-13.052-19.576-11.639a14.761,14.761,0,0,0-4.223,8.195,20.293,20.293,0,0,0-.023,7.125,23.781,23.781,0,0,0,2.441,7.383" transform="translate(2.802 15.443)" fill="#ffc377"/>
    <path id="Path_3005" data-name="Path 3005" d="M54.848,154.5A22.938,22.938,0,0,0,57.267,169l39.2,75.746c5.005,9.674,15.25,14.4,22.75,10.518a11.236,11.236,0,0,0,2.72-1.959c-7,1.412-15.234-3.248-19.564-11.616l-17.9-34.584-21.3-41.163a23.781,23.781,0,0,1-2.441-7.383,20.322,20.322,0,0,1,.023-7.125,14.757,14.757,0,0,1,4.223-8.195,11.215,11.215,0,0,0-3.17,1.088c-3.75,1.941-6.138,5.691-6.961,10.164" transform="translate(1.809 15.485)" fill="#fa9e4a"/>
    <path id="Path_3006" data-name="Path 3006" d="M66.064,161.239l14.326-4.858a1.36,1.36,0,0,0,.725-2.1,2.414,2.414,0,0,0-1.186-.9,2.439,2.439,0,0,0-1.517-.032l-14.326,4.858a1.333,1.333,0,0,0-.724,2.1,2.4,2.4,0,0,0,.833.757,2.3,2.3,0,0,0,.353.144,2.426,2.426,0,0,0,1.516.032" transform="translate(3.541 17.506)" fill="#fa9e4a"/>
    <path id="Path_3007" data-name="Path 3007" d="M75.658,179.669l14.326-4.858a1.36,1.36,0,0,0,.725-2.1,2.434,2.434,0,0,0-2.7-.934l-14.326,4.856a1.334,1.334,0,0,0-.724,2.1,2.378,2.378,0,0,0,.833.757,2.583,2.583,0,0,0,.353.144,2.426,2.426,0,0,0,1.516.032" transform="translate(5.48 21.23)" fill="#fa9e4a"/>
    <path id="Path_3008" data-name="Path 3008" d="M86.542,203.4l14.326-4.858a1.36,1.36,0,0,0,.725-2.1,2.433,2.433,0,0,0-2.7-.934l-14.326,4.858a1.333,1.333,0,0,0-.724,2.1,2.4,2.4,0,0,0,.833.757,2.622,2.622,0,0,0,1.869.177" transform="translate(7.679 26.026)" fill="#fa9e4a"/>
    <path id="Path_3009" data-name="Path 3009" d="M96.136,221.834l14.326-4.858a1.36,1.36,0,0,0,.725-2.1,2.433,2.433,0,0,0-2.7-.934L94.157,218.8a1.334,1.334,0,0,0-.724,2.1,2.411,2.411,0,0,0,.833.757,2.574,2.574,0,0,0,.353.144,2.435,2.435,0,0,0,1.516.033" transform="translate(9.618 29.751)" fill="#fa9e4a"/>
    <path id="Path_3010" data-name="Path 3010" d="M81.527,184.625c-.368,1.132.394,2.3,1.172,3.2a29.293,29.293,0,0,0,19.345,9.953c.166-.228.331-.457.5-.685q-.05-.444-.088-.885a32.706,32.706,0,0,0-6.985-9.359,15.03,15.03,0,0,0-10.914-3.984c-1.236.106-2.646.583-3.035,1.76" transform="translate(7.247 23.482)" fill="#339dd5"/>
    <path id="Path_3011" data-name="Path 3011" d="M84.673,170.267a2.486,2.486,0,0,0-.19,1.444c.469,5.347,4.146,9.9,8.305,13.293a43.2,43.2,0,0,0,8.041,5.21c.518-2.492-.345-5.081-1.465-7.371a31.828,31.828,0,0,0-10.939-12.466,4.839,4.839,0,0,0-1.908-.868,1.832,1.832,0,0,0-1.844.758" transform="translate(7.858 20.788)" fill="#4a4b4d"/>
    <path id="Path_3012" data-name="Path 3012" d="M86.139,161.141a8.764,8.764,0,0,0,1.447,4.677A24.754,24.754,0,0,0,101.782,177a33.552,33.552,0,0,0-6.495-13.035,14.878,14.878,0,0,0-6.381-4.99,2.493,2.493,0,0,0-1.165-.174c-1.011.147-1.549,1.311-1.6,2.337" transform="translate(8.197 18.625)" fill="#4a4b4d"/>
    <path id="Path_3013" data-name="Path 3013" d="M101.309,167.138a.661.661,0,0,0,.109-.011,1.914,1.914,0,0,0-.007-.233l-.072,0a23.216,23.216,0,0,0-8.6-14.171,8.015,8.015,0,0,0-1.206-.79,2.992,2.992,0,0,0-2.3-.326,11.059,11.059,0,0,0,1.583,6.614,26.746,26.746,0,0,0,4.336,5.366c1.653,1.673,3.532,3.375,5.86,3.677a.336.336,0,0,0,.295-.13" transform="translate(8.813 17.153)" fill="#4a4b4d"/>
    <path id="Path_3014" data-name="Path 3014" d="M90.566,147.814a1.258,1.258,0,0,0-.5,1.43,5.027,5.027,0,0,0,2.161,2.828,15.748,15.748,0,0,0,5.418,2.582,3.637,3.637,0,0,0,1.926.094l.209-.011c-.075-.332-.153-.666-.232-1a18.246,18.246,0,0,0-7.862-5.822,1.5,1.5,0,0,0-1.124-.106" transform="translate(8.984 16.393)" fill="#4a4b4d"/>
    <path id="Path_3015" data-name="Path 3015" d="M97.745,150.348c.049.131.1.262.149.394a18.045,18.045,0,0,0-.833-6.678,12.075,12.075,0,0,0-4.16-5.881c-.587-.434-1.45-.791-2-.305a1.717,1.717,0,0,0-.248,1.69,19.214,19.214,0,0,0,6.9,10.851Z" transform="translate(9.09 14.353)" fill="#4a4b4d"/>
    <path id="Path_3016" data-name="Path 3016" d="M99,196.229c.058.561.119,1.117.2,1.672a26.368,26.368,0,0,0,12.249-3.075,11.356,11.356,0,0,0,3.151-2.039,4.563,4.563,0,0,0,1.463-3.359,2.5,2.5,0,0,0-.463-1.381,3.42,3.42,0,0,0-3.081-.928,15.575,15.575,0,0,0-8.059,3.365A29.2,29.2,0,0,0,99,196.229" transform="translate(10.796 24.345)" fill="#339dd5"/>
    <path id="Path_3017" data-name="Path 3017" d="M98.661,188.412c0,.45-.011.9-.007,1.349a1.5,1.5,0,0,0,.844-.043,45.083,45.083,0,0,0,11.2-4.519,17.089,17.089,0,0,0,4.8-3.738,7.709,7.709,0,0,0,1.929-5.637,2.529,2.529,0,0,0-.546-1.435,2.338,2.338,0,0,0-1.266-.642c-1.962-.426-3.973.432-5.658,1.512-4.909,3.151-8.228,8.166-11.3,13.153" transform="translate(10.727 21.626)" fill="#4a4b4d"/>
    <path id="Path_3018" data-name="Path 3018" d="M99.176,176.316c-.011.254-.022.507-.037.757l.388.018a29.961,29.961,0,0,0,8.5-3.534c3-1.826,5.832-4.46,6.455-7.913a2.733,2.733,0,0,0-.457-2.39c-.792-.829-2.171-.6-3.234-.156a17.131,17.131,0,0,0-6.644,5.313A51.3,51.3,0,0,0,99.59,175.7l-.379-.018c-.01.182-.019.364-.03.541a.616.616,0,0,1,0,.1" transform="translate(10.825 19.416)" fill="#4a4b4d"/>
    <path id="Path_3019" data-name="Path 3019" d="M98.93,154.97c-.017.144-.038.284-.054.428a17.762,17.762,0,0,0,5.659-2.682,6.893,6.893,0,0,0,2.843-5.359c-.011-.506-.165-1.091-.637-1.268a1.282,1.282,0,0,0-.661-.013,8.971,8.971,0,0,0-4.253,2.621c-1.647,1.531-3.338,3.333-3.51,5.579l-.166.119c.124.174.246.35.37.525Z" transform="translate(10.625 16.049)" fill="#4a4b4d"/>
    <path id="Path_3020" data-name="Path 3020" d="M103.808,157.657a28.593,28.593,0,0,0-4.288,9.155,11.826,11.826,0,0,0,6.87-3.208,20.039,20.039,0,0,0,4.63-6.973,3.828,3.828,0,0,0,.362-2.824,1.293,1.293,0,0,0-.5-.654,1.7,1.7,0,0,0-1.29-.082c-2.446.578-4.33,2.529-5.783,4.586" transform="translate(10.902 17.453)" fill="#4a4b4d"/>
    <path id="Path_3021" data-name="Path 3021" d="M99.978,180.1c.513-10.934.044-22.017-3.974-32.326-.224-.571.688-.857.911-.286,3.936,10.1,4.509,20.956,4.057,31.681-.487,11.521-1.644,23.029-2.541,34.524-.047.6-1,.656-.953.043.874-11.2,1.974-22.412,2.5-33.635" transform="translate(10.184 16.28)" fill="#4a4b4d"/>
    <path id="Path_3022" data-name="Path 3022" d="M149.5,194.5a7.641,7.641,0,0,1-1.308,2.7,23.23,23.23,0,0,1-3.7,3.577c-1.564,1.335-3.136,2.663-4.71,4-1.47,1.243-3.005,2.443-4.4,3.769-1.19,1.132-2.351,2.742-1.777,4.45.529,1.546,2.315,1.888,3.8,1.8,1.808-.108,3.515-.841,5.342-.731a5.247,5.247,0,0,1,4.676,6.086c-.417,3.22-3.1,5.8-5.7,7.6a41.762,41.762,0,0,1-9.035,4.349c-5.888,2.235-12.642,4.549-15.821,10.236-.256.45-1,.083-.745-.376.043-.078.1-.149.141-.227a99.879,99.879,0,0,1-7.906-7.066,97.609,97.609,0,0,1-7.291-8.1c-1.153-1.424-2.272-2.879-3.321-4.38a15.022,15.022,0,0,1-2.352-4.5c-.727-2.577,0-5.786,2.661-7.038,2.416-1.142,4.51.238,6.375,1.73.608.492,1.19,1,1.749,1.423,1.266.959,3.11,1.991,4.739,1.368a3.227,3.227,0,0,0,1.737-3.605,8.794,8.794,0,0,0-2.378-4.214,39.667,39.667,0,0,1-3.2-4.215,28.159,28.159,0,0,1-4.017-9.594,6.015,6.015,0,0,1,.726-4.733,3.735,3.735,0,0,1,3.67-1.57c3.226.5,4.927,4.3,8.327,4.29,1.839-.011,2.39-1.717,2.011-3.216a9.9,9.9,0,0,0-2.645-4.248c-2.26-2.363-5.12-4.3-6.616-7.251a6.207,6.207,0,0,1-.664-4.254,5.651,5.651,0,0,1,2.086-3.179,4,4,0,0,1,3.693-.6c1.564.545,2.576,1.9,4.043,2.593a3.073,3.073,0,0,0,2.225.286,1.554,1.554,0,0,0,.982-1.818c-.281-1.672-1.763-3.029-2.82-4.3a75.91,75.91,0,0,1-6.571-9.226,9.39,9.39,0,0,1-1.714-4.818,4.214,4.214,0,0,1,1.867-3.455,3.587,3.587,0,0,1,3.75.079c.976.522,2.343,1.793,3.545,1.4,1.628-.543,1.126-3.039.9-4.242-.345-1.844-.95-3.635-1.31-5.48-.546-2.724-.411-5.8,1.5-8.011a5.679,5.679,0,0,1,7.515-.664c2.836,1.868,3.761,5.13,3.868,8.257.069,1.778-.207,3.568-.088,5.338.107,1.586.785,3.468,2.526,4.011,1.289.412,2.578-.345,3.628-.966a9.061,9.061,0,0,1,3.172-1.492,2.766,2.766,0,0,1,2.84,1.409,5.979,5.979,0,0,1,.224,4.067,20.541,20.541,0,0,1-4.346,9.04c-.99,1.2-2.568,2.395-2.73,4.026a1.835,1.835,0,0,0,2.409,2.1c2-.6,4.567-3.02,6.5-.791a4.436,4.436,0,0,1,.808,3.291,13.97,13.97,0,0,1-1.274,4.2,34.771,34.771,0,0,1-5.57,8.977,10.086,10.086,0,0,0-2.546,4.049c-.375,1.729,1.013,2.831,2.719,2.808,1.729-.014,3.28-.858,4.973-1.067a4.26,4.26,0,0,1,3.857,1.375,5.077,5.077,0,0,1,.969,4.741" transform="translate(10.013 12.812)" fill="#7c7d7e"/>
    <path id="Path_3023" data-name="Path 3023" d="M125.56,159.956a109.9,109.9,0,0,0-3.754-20.784q-.366-1.282-.768-2.557a.417.417,0,0,0-.793.251,106.678,106.678,0,0,1,4.255,20.791,135.33,135.33,0,0,1,.494,21.12,181.1,181.1,0,0,1-2.476,21.441c-1.243,7.211-2.838,14.359-4.616,21.459-1.787,7.144-3.761,14.24-5.756,21.331q-.375,1.334-.751,2.67c-.141.5.68.676.821.177,2.006-7.122,4.013-14.248,5.852-21.415,1.846-7.193,3.526-14.432,4.861-21.737a190.594,190.594,0,0,0,2.75-21.413,139.232,139.232,0,0,0-.119-21.336" transform="translate(13.298 14.09)" fill="#b6b7b7"/>
    <path id="Path_3024" data-name="Path 3024" d="M134.552,206.084l-17.939,15.175a120.141,120.141,0,0,0-12.689-18.852c-.334-.408-1.035.028-.7.44a120.027,120.027,0,0,1,12.92,19.268.438.438,0,0,0,.664.052l18.37-15.539c.4-.341-.228-.88-.627-.543" transform="translate(11.633 27.407)" fill="#b6b7b7"/>
    <path id="Path_3025" data-name="Path 3025" d="M136.752,185.154l-15.271,14.7a87.029,87.029,0,0,0-11.427-15.464c-.361-.391-.914.21-.555.6a86.136,86.136,0,0,1,11.545,15.746.434.434,0,0,0,.662.052q7.838-7.544,15.674-15.09c.38-.367-.25-.908-.627-.543" transform="translate(12.895 23.774)" fill="#b6b7b7"/>
    <path id="Path_3026" data-name="Path 3026" d="M132.464,168.3a78.811,78.811,0,0,1-8.36,12.618,61.425,61.425,0,0,0-9.481-12.032c-.38-.376-.934.224-.555.6a60.584,60.584,0,0,1,9.648,12.38.433.433,0,0,0,.662.052,79.919,79.919,0,0,0,8.835-13.241c.244-.46-.5-.834-.749-.374" transform="translate(13.816 20.506)" fill="#b6b7b7"/>
    <path id="Path_3027" data-name="Path 3027" d="M130.8,152.4a83.386,83.386,0,0,0-6.135,9.109l-8.3-9.792c-.339-.4-1.041.034-.7.439l8.716,10.28a.435.435,0,0,0,.724-.034,81.659,81.659,0,0,1,6.323-9.459c.32-.411-.307-.957-.627-.543" transform="translate(14.146 17.165)" fill="#b6b7b7"/>
    <path id="Path_3028" data-name="Path 3028" d="M170.452,164.339c2.295,14.359-.119,31.994-7.108,44.756-7.651,13.966-20.69,22.469-35.67,27.845a36.9,36.9,0,0,1-6.532,1.767,37.329,37.329,0,0,1-1.7-6.694,60.16,60.16,0,0,1,21.439-56.7c8.348-6.759,18.856-11.291,29.57-10.97" transform="translate(14.762 19.744)" fill="#4a4b4d"/>
    <path id="Path_3029" data-name="Path 3029" d="M165.826,167.167a193.79,193.79,0,0,0-14.656,16.538c-.12-.474-.151-1.006-.232-1.453q-.373-2.088-.748-4.176c-.156-.868-1.529-.745-1.373.127l.851,4.745a6.188,6.188,0,0,0,.516,1.974q-2.537,3.26-4.939,6.625c-1.85,2.6-3.609,5.26-5.325,7.948l-2.33-10.313c-.194-.855-1.567-.736-1.373.127l2.672,11.827c-3.188,5.1-6.168,10.337-8.879,15.708q-1.3-6.507-2.6-13.017c-.172-.862-1.546-.742-1.373.129q1.435,7.184,2.869,14.368a.931.931,0,0,0,.161.345c-.031.064-.066.126-.1.19q-3.961,8.085-7.157,16.513c-.314.827.941,1.4,1.257.567,2.22-5.852,4.758-11.577,7.533-17.186l15.108-3.1c.861-.177.74-1.551-.127-1.373l-14.2,2.909c1.676-3.311,3.411-6.591,5.275-9.8,1.013-1.744,2.08-3.457,3.147-5.169l15.436-1.586a.69.69,0,0,0-.127-1.373l-14.408,1.481q4.906-7.712,10.527-14.938a2.485,2.485,0,0,0,.508.138,7.864,7.864,0,0,0,1.886-.048l2.575-.236,4.95-.454a.69.69,0,0,0-.127-1.373l-4.356.4c-1.388.127-2.786.319-4.178.374-.1,0-.2,0-.3,0,.891-1.128,1.78-2.257,2.7-3.365q5.692-6.881,12.005-13.212c.625-.627-.451-1.492-1.072-.867" transform="translate(15.397 20.275)" fill="#84878e"/>
    <path id="Path_3030" data-name="Path 3030" d="M115.033,193.913a22.509,22.509,0,1,1-29.775-11.257,22.51,22.51,0,0,1,29.775,11.257" transform="translate(5.341 23.045)" fill="#ffa9a9"/>
    <path id="Path_3031" data-name="Path 3031" d="M63.038,183.977a8.755,8.755,0,0,0,3.243,3.668A24.749,24.749,0,0,0,83.821,192a33.554,33.554,0,0,0-11.283-9.21,14.875,14.875,0,0,0-7.868-1.922,2.486,2.486,0,0,0-1.134.32c-.861.549-.873,1.833-.5,2.789" transform="translate(3.482 23.08)" fill="#4a4b4d"/>
    <path id="Path_3032" data-name="Path 3032" d="M81.1,175.655a6.893,6.893,0,0,0-1.855,3.371,19.455,19.455,0,0,0,1.422,14.134A26.377,26.377,0,0,0,84.5,182.371a11.7,11.7,0,0,0-.661-6.331,1.962,1.962,0,0,0-.537-.755,1.824,1.824,0,0,0-2.2.37" transform="translate(6.659 21.911)" fill="#4a4b4d"/>
    <path id="Path_3033" data-name="Path 3033" d="M167.664,335.219H85.5V208.694l5.985,7.182,5.984-7.182,6,7.182,5.985-7.182,6,7.182,5.984-7.182,5.984,7.182,6-7.182,5.984,7.182,5.984-7.182,6,7.182,5.985-7.182Z" transform="translate(8.068 28.71)" fill="#fac46d"/>
    <path id="Path_3034" data-name="Path 3034" d="M89.153,208.694V335.219H67.409L74.26,208.694l7.447,7.182Z" transform="translate(4.413 28.711)" fill="#fa9e4a"/>
    <path id="Path_3035" data-name="Path 3035" d="M97.126,186.823c-1.856,0-1.594,2.874.251,2.874s1.6-2.874-.251-2.874" transform="translate(10.162 24.291)" fill="#f25c5c"/>
    <path id="Path_3036" data-name="Path 3036" d="M101.963,192.16c-1.856,0-1.594,2.874.251,2.874s1.594-2.874-.251-2.874" transform="translate(11.139 25.369)" fill="#f25c5c"/>
    <path id="Path_3037" data-name="Path 3037" d="M96.959,192.994c-1.856,0-1.594,2.874.251,2.874s1.594-2.874-.251-2.874" transform="translate(10.128 25.538)" fill="#f25c5c"/>
    <path id="Path_3038" data-name="Path 3038" d="M101.127,86.429l-2.284,3.124L96.3,87.695l2.278-3.129-3.122-2.272,1.856-2.552,3.13,2.277,2.294-3.145,2.547,1.857-2.295,3.145,3.124,2.285-1.864,2.547Z" transform="translate(10.08 2.477)" fill="#fc6011"/>
    <path id="Path_3039" data-name="Path 3039" d="M116.537,94.4a6.1,6.1,0,1,1,6.971,5.086,6.109,6.109,0,0,1-6.971-5.086m5.437-4.723a3.823,3.823,0,1,0,4.372,3.189,3.826,3.826,0,0,0-4.372-3.189" transform="translate(14.326 4.189)" fill="#fc6011"/>
    <rect id="Rectangle_17284" data-name="Rectangle 17284" width="8.504" height="8.505" transform="translate(114.892 118.517) rotate(-64.264)" fill="#fecfb7"/>
    <path id="Path_3040" data-name="Path 3040" d="M90.722,96.223a5.187,5.187,0,1,1-4.324,5.926,5.187,5.187,0,0,1,4.324-5.926" transform="translate(8.238 5.97)" fill="#fecfb7"/>
    <path id="Path_3041" data-name="Path 3041" d="M99.042,123.839a3.545,3.545,0,1,1-2.955,4.051,3.547,3.547,0,0,1,2.955-4.051" transform="translate(10.199 11.555)" fill="#fc6011"/>
    <path id="Path_3042" data-name="Path 3042" d="M227.883,285.6a41.651,41.651,0,1,1-41.651-41.651A41.65,41.65,0,0,1,227.883,285.6" transform="translate(20.008 35.834)" fill="#f25c5c"/>
    <path id="Path_3043" data-name="Path 3043" d="M224.6,285.6a41.651,41.651,0,1,1-41.651-41.651A41.65,41.65,0,0,1,224.6,285.6" transform="translate(19.343 35.834)" fill="#ffa9a9"/>
    <path id="Path_3044" data-name="Path 3044" d="M221.343,285.131a38.866,38.866,0,1,1-38.866-38.866,38.866,38.866,0,0,1,38.866,38.866" transform="translate(19.812 36.303)" fill="#fff"/>
    <path id="Path_3045" data-name="Path 3045" d="M194.724,297.267,171.03,288.56V252.19h1.834v35.091l22.492,8.262Z" transform="translate(25.352 37.5)" fill="#3e394f"/>
    <path id="Path_3046" data-name="Path 3046" d="M166.466,255.613l6.4-11.088,6.4,11.088Z" transform="translate(24.43 35.951)" fill="#3e394f"/>
    <path id="Path_3047" data-name="Path 3047" d="M187.7,295.455l12.616-2.185-8.2-9.834Z" transform="translate(28.722 43.814)" fill="#3e394f"/>
    <g id="Group_2185" data-name="Group 2185" transform="translate(200.71 285.549)" style="mix-blend-mode: multiply;isolation: isolate">
      <g id="Group_2184" data-name="Group 2184" transform="translate(0 0)">
        <g id="Group_2183" data-name="Group 2183" clip-path="url(#clip-path-5)">
          <path id="Path_3048" data-name="Path 3048" d="M174.63,248.745V286.46l35.254,12.981s11.926-46.11-35.254-50.7" transform="translate(-174.63 -248.745)" fill="#fecfb7"/>
        </g>
      </g>
    </g>
    <path id="Path_3049" data-name="Path 3049" d="M175.534,282.637a3.2,3.2,0,1,1-3.2-3.2,3.2,3.2,0,0,1,3.2,3.2" transform="translate(24.968 43.006)" fill="#3e394f"/>
    <path id="Path_3050" data-name="Path 3050" d="M221.357,79.762,214.643,80.8l1.024,6.666-5.437.839-1.024-6.666-6.669,1.03-.84-5.437,6.669-1.03-1.034-6.663,5.437-.84,1.035,6.663,6.712-1.036ZM212,69.744l-3.627.56,1.035,6.663L202.742,78l.56,3.627,6.67-1.031L211,87.259l3.627-.56L213.6,80.035,220.311,79l-.56-3.627-6.712,1.036Z" transform="translate(31.549 0.421)" fill="#fc6011"/>
    <path id="Path_3051" data-name="Path 3051" d="M216.886,89.479a7.545,7.545,0,1,1,1.628,10.54,7.556,7.556,0,0,1-1.628-10.54m8.879.641a4.726,4.726,0,1,0,1.022,6.61,4.734,4.734,0,0,0-1.022-6.61" transform="translate(34.325 3.996)" fill="#fc6011"/>
    <rect id="Rectangle_17286" data-name="Rectangle 17286" width="7.405" height="7.405" transform="matrix(0.028, -1, 1, 0.028, 232.574, 102.933)" fill="#fc6011"/>
    <path id="Path_3052" data-name="Path 3052" d="M221.078,104.415a2.381,2.381,0,1,1,.513,3.329,2.38,2.38,0,0,1-.513-3.329" transform="translate(35.373 7.441)" fill="#fc6011"/>
  </g>
</svg>
