<svg xmlns="http://www.w3.org/2000/svg" xmlns:xlink="http://www.w3.org/1999/xlink" width="210.613" height="313.262" viewBox="0 0 210.613 313.262">
  <defs>
    <clipPath id="clip-path">
      <rect id="Rectangle_17294" data-name="Rectangle 17294" width="38.309" height="38.309" fill="#fc6011"/>
    </clipPath>
    <clipPath id="clip-path-4">
      <rect id="Rectangle_17297" data-name="Rectangle 17297" width="38.31" height="38.309" fill="#fc6011"/>
    </clipPath>
    <clipPath id="clip-path-5">
      <rect id="Rectangle_17299" data-name="Rectangle 17299" width="38.31" height="38.31" fill="#fc6011"/>
    </clipPath>
    <clipPath id="clip-path-6">
      <rect id="Rectangle_17298" data-name="Rectangle 17298" width="38.309" height="38.31" fill="#fc6011"/>
    </clipPath>
  </defs>
  <g id="Live_tracking_vector" data-name="Live tracking vector" transform="translate(-524.25 -48.225)">
    <path id="Path_3134" data-name="Path 3134" d="M691.137,164.052a13.663,13.663,0,0,0-4.491,11l5.309,83.505s1.574,12.87-9.722,12.87-9.723-12.87-9.723-12.87l5.293-83.505a13.649,13.649,0,0,0-4.491-11l-1.2-1.08a13.653,13.653,0,0,1-4.4-11.915l5.478-42.239a1.476,1.476,0,0,1,1.45-1.266,1.459,1.459,0,0,1,1.466,1.435l.669,39.766a1.573,1.573,0,0,0,1.573,1.548h.736a1.575,1.575,0,0,0,1.575-1.574v-39.6a1.574,1.574,0,1,1,3.147,0v39.6a1.575,1.575,0,0,0,1.574,1.574h.737a1.574,1.574,0,0,0,1.573-1.548l.669-39.766a1.456,1.456,0,0,1,2.9-.169l5.495,42.239a13.7,13.7,0,0,1-4.414,11.915Z" transform="translate(14.124 5.846)" fill="#fc6011"/>
    <path id="Path_3135" data-name="Path 3135" d="M665.64,79.252l2.082,2.086-1.7,1.7-2.087-2.081-2.076,2.081-1.7-1.7,2.082-2.086-2.1-2.1,1.7-1.7,2.1,2.1,2.087-2.082,1.7,1.7Z" transform="translate(13.39 2.683)" fill="#fc6011"/>
    <path id="Path_3136" data-name="Path 3136" d="M674.3,67.321a4.649,4.649,0,1,1,4.648-4.647,4.652,4.652,0,0,1-4.648,4.647m-2.913-4.647A2.912,2.912,0,1,0,674.3,59.76a2.913,2.913,0,0,0-2.913,2.914" transform="translate(14.327 0.965)" fill="#fc6011"/>
    <rect id="Rectangle_17292" data-name="Rectangle 17292" width="6.477" height="6.477" transform="translate(696.412 78.967) rotate(-55.377)" fill="#fecfb7"/>
    <path id="Path_3137" data-name="Path 3137" d="M672.935,89.078a3.95,3.95,0,1,1,3.95,3.95,3.95,3.95,0,0,1-3.95-3.95" transform="translate(14.65 3.636)" fill="#fecfb7"/>
    <path id="Path_3138" data-name="Path 3138" d="M696.776,85.479a2.7,2.7,0,1,1,2.7,2.7,2.7,2.7,0,0,1-2.7-2.7" transform="translate(17 3.405)" fill="#fc6011"/>
    <path id="Path_3139" data-name="Path 3139" d="M536.81,197.588a2.577,2.577,0,1,1,2.577,2.577,2.577,2.577,0,0,1-2.577-2.577" transform="translate(1.238 14.463)" fill="#fecfb7"/>
    <rect id="Rectangle_17293" data-name="Rectangle 17293" width="6.178" height="6.178" transform="matrix(0.823, -0.568, 0.568, 0.823, 532.829, 196.131)" fill="#fc6011"/>
    <path id="Path_3140" data-name="Path 3140" d="M524.25,196.6a2.8,2.8,0,1,1,2.8,2.8,2.805,2.805,0,0,1-2.8-2.8" transform="translate(0 14.343)" fill="#fc6011"/>
    <path id="Path_3141" data-name="Path 3141" d="M694.248,167.477l4.137,103.939c.063,1.577,1.023,2.821,2.144,2.777.949-.038,1.736-1,1.891-2.31l5.917-49.69c.387-3.243-.8-6.518-2.906-8.052a8.529,8.529,0,0,1-2.978-6.928l.384-39.656c.034-3.5-2.051-6.39-4.538-6.291-2.371.094-4.184,2.876-4.051,6.212" transform="translate(16.75 11.138)" fill="#fc6011"/>
    <path id="Path_3143" data-name="Path 3143" d="M650.447,91.395H583.34a13.012,13.012,0,0,0-12.963,12.969V271.787a13,13,0,0,0,12.963,12.964h67.107a13,13,0,0,0,12.969-12.964V104.364a13.013,13.013,0,0,0-12.969-12.969m.258,5.673a7.605,7.605,0,0,1,7.581,7.588V265.131a7.6,7.6,0,0,1-7.581,7.581H583.386a7.6,7.6,0,0,1-7.588-7.581V104.655a7.61,7.61,0,0,1,7.588-7.588Z" transform="translate(4.545 4.254)" fill="#29293d"/>
    <path id="Path_3144" data-name="Path 3144" d="M650.474,91.106H583.368a13.3,13.3,0,0,0-13.28,13.287V271.816a13.3,13.3,0,0,0,13.28,13.28h67.106a13.3,13.3,0,0,0,13.28-13.28V104.393a13.3,13.3,0,0,0-13.28-13.287m12.653,180.71a12.666,12.666,0,0,1-12.653,12.646H583.368a12.66,12.66,0,0,1-12.646-12.646V104.393A12.666,12.666,0,0,1,583.368,91.74h67.106a12.672,12.672,0,0,1,12.653,12.653Z" transform="translate(4.517 4.225)" fill="#ccc"/>
    <path id="Path_3145" data-name="Path 3145" d="M657.8,104.147V264.623a7.6,7.6,0,0,1-7.581,7.581H582.9a7.605,7.605,0,0,1-7.588-7.581V104.147a7.611,7.611,0,0,1,7.588-7.588h67.32a7.606,7.606,0,0,1,7.581,7.588" transform="translate(5.031 4.763)" fill="#fecfb7"/>
    <path id="Path_3146" data-name="Path 3146" d="M606.529,97.618a1.972,1.972,0,1,1-1.97,1.975,1.975,1.975,0,0,1,1.97-1.975" transform="translate(7.913 4.867)" fill="#3b414b"/>
    <path id="Path_3147" data-name="Path 3147" d="M621.14,99.395a1.768,1.768,0,1,1-1.765-1.682,1.727,1.727,0,0,1,1.765,1.682" transform="translate(9.199 4.876)" fill="#515760"/>
    <path id="Path_3148" data-name="Path 3148" d="M616.039,98.6v1a.975.975,0,0,1-.979.978h-3.868a.979.979,0,0,1-.979-.978v-1a.985.985,0,0,1,.979-.979h3.868a.98.98,0,0,1,.979.979" transform="translate(8.47 4.867)" fill="#1a1f29"/>
    <path id="Path_3149" data-name="Path 3149" d="M609.018,99.7a1.973,1.973,0,1,0-1.976,1.97,1.976,1.976,0,0,0,1.976-1.97m7.112-1.976h-3.868a.984.984,0,0,0-.979.979v1a.979.979,0,0,0,.979.978h3.868a.975.975,0,0,0,.979-.978v-1a.98.98,0,0,0-.979-.979m-16.776-1.161h29.791s-3.207.556-3.232,3.566-2.556,3.516-4.821,3.516H607.407c-2.266,0-4.791-.511-4.823-3.516s-3.231-3.566-3.231-3.566m21.819,1.269a1.681,1.681,0,1,0,1.768,1.679,1.726,1.726,0,0,0-1.768-1.679" transform="translate(7.4 4.763)" fill="#3e394f"/>
    <path id="Path_3150" data-name="Path 3150" d="M659.841,103.752V264.913h-1.883V104.437a7.605,7.605,0,0,0-7.581-7.588H583.058a7.611,7.611,0,0,0-7.589,7.588V264.913H573.7V103.752a10.176,10.176,0,0,1,10.143-10.143H649.7a10.167,10.167,0,0,1,10.143,10.143" transform="translate(4.873 4.472)" fill="#3e394f"/>
    <path id="Path_3151" data-name="Path 3151" d="M659.841,249.548v7.032A10.171,10.171,0,0,1,649.7,266.722H583.846A10.181,10.181,0,0,1,573.7,256.58v-7.032h1.766a7.606,7.606,0,0,0,7.589,7.581h67.319a7.6,7.6,0,0,0,7.581-7.581Z" transform="translate(4.873 19.837)" fill="#3e394f"/>
    <path id="Path_3152" data-name="Path 3152" d="M643.142,311.569S617.218,249.75,655.47,214.76c0,0-10.153-58.556,0-66.714s17.04,21.21,33.357,114.211l35.122,47.861.045,41.661H660.853Z" transform="translate(10.869 9.708)" fill="#ffa9a9"/>
    <path id="Path_3153" data-name="Path 3153" d="M571.742,199.744H562.5a8.249,8.249,0,0,1,0-16.5h9.246a8.249,8.249,0,1,1,0,16.5" transform="translate(2.956 13.304)" fill="#ffa9a9"/>
    <path id="Path_3154" data-name="Path 3154" d="M570.218,217.571h-8.793a9.653,9.653,0,0,1,0-19.307h8.793a9.653,9.653,0,1,1,0,19.307" transform="translate(2.712 14.784)" fill="#ffa9a9"/>
    <path id="Path_3155" data-name="Path 3155" d="M570.549,235.147h-8.793a9.654,9.654,0,1,1,0-19.308h8.793a9.654,9.654,0,1,1,0,19.308" transform="translate(2.744 16.516)" fill="#ffa9a9"/>
    <path id="Path_3156" data-name="Path 3156" d="M572.113,249.912h-9.245a8.249,8.249,0,0,1,0-16.5h9.245a8.249,8.249,0,0,1,0,16.5" transform="translate(2.992 18.247)" fill="#ffa9a9"/>
    <g id="Group_2190" data-name="Group 2190" transform="translate(564.229 118.676)" style="mix-blend-mode: multiply;isolation: isolate">
      <g id="Group_2189" data-name="Group 2189">
        <g id="Mask_Group_2188" data-name="Mask Group 2188" clip-path="url(#clip-path)">
          <path id="Path_3157" data-name="Path 3157" d="M591.592,150.666H568a7.381,7.381,0,0,1-7.359-7.359v-23.59a7.382,7.382,0,0,1,7.359-7.36h23.591a7.381,7.381,0,0,1,7.359,7.36v23.59a7.38,7.38,0,0,1-7.359,7.359" transform="translate(-560.643 -112.357)" fill="#fc6011"/>
        </g>
      </g>
    </g>
    <g id="Group_2193" data-name="Group 2193" transform="translate(606.603 117.882)" style="mix-blend-mode: multiply;isolation: isolate">
      <g id="Group_2192" data-name="Group 2192" transform="translate(0 0)">
        <g id="Group_2191" data-name="Group 2191" clip-path="url(#clip-path)">
          <path id="Path_3158" data-name="Path 3158" d="M630.166,149.943H606.575a7.381,7.381,0,0,1-7.359-7.359V118.993a7.382,7.382,0,0,1,7.359-7.36h23.591a7.381,7.381,0,0,1,7.359,7.36v23.591a7.381,7.381,0,0,1-7.359,7.359" transform="translate(-599.216 -111.634)" fill="#fc6011"/>
        </g>
      </g>
    </g>
    <g id="Group_2196" data-name="Group 2196" transform="translate(563.353 166.11)" style="mix-blend-mode: multiply;isolation: isolate">
      <g id="Group_2195" data-name="Group 2195">
        <g id="Group_2194" data-name="Group 2194" clip-path="url(#clip-path)">
          <path id="Path_3159" data-name="Path 3159" d="M590.8,193.845H567.205a7.382,7.382,0,0,1-7.36-7.359V162.9a7.382,7.382,0,0,1,7.36-7.359H590.8a7.38,7.38,0,0,1,7.358,7.359v23.591a7.38,7.38,0,0,1-7.358,7.359" transform="translate(-559.846 -155.536)" fill="#fc6011"/>
        </g>
      </g>
    </g>
    <g id="Group_2199" data-name="Group 2199" transform="translate(605.727 165.315)" style="mix-blend-mode: multiply;isolation: isolate">
      <g id="Group_2198" data-name="Group 2198">
        <g id="Group_2197" data-name="Group 2197" clip-path="url(#clip-path-4)">
          <path id="Path_3160" data-name="Path 3160" d="M629.37,193.122H605.779a7.381,7.381,0,0,1-7.36-7.359v-23.59a7.382,7.382,0,0,1,7.36-7.36H629.37a7.381,7.381,0,0,1,7.359,7.36v23.59a7.38,7.38,0,0,1-7.359,7.359" transform="translate(-598.419 -154.813)" fill="#fc6011"/>
        </g>
      </g>
    </g>
    <g id="Group_2205" data-name="Group 2205" transform="translate(605.727 211.885)" style="mix-blend-mode: multiply;isolation: isolate">
      <g id="Group_2204" data-name="Group 2204">
        <g id="Group_2203" data-name="Group 2203" clip-path="url(#clip-path-5)">
          <path id="Path_3162" data-name="Path 3162" d="M629.37,235.515H605.779a7.382,7.382,0,0,1-7.36-7.359V204.565a7.383,7.383,0,0,1,7.36-7.36H629.37a7.382,7.382,0,0,1,7.359,7.36v23.591a7.381,7.381,0,0,1-7.359,7.359" transform="translate(-598.419 -197.205)" fill="#fc6011"/>
        </g>
      </g>
    </g>
    <rect id="Rectangle_17300" data-name="Rectangle 17300" width="29.253" height="2.15" transform="translate(609.793 238.242)" fill="#fff"/>
    <path id="Path_3163" data-name="Path 3163" d="M612.97,204.693a2.388,2.388,0,1,1,2.392,2.385,2.394,2.394,0,0,1-2.392-2.385" transform="translate(8.742 15.183)" fill="#fff"/>
    <path id="Path_3164" data-name="Path 3164" d="M630.718,220.944H602.989s-1.117-13.435,13.677-13.029c8.895.243,12.177,4.885,13.372,8.559a13.2,13.2,0,0,1,.68,4.47" transform="translate(7.756 15.734)" fill="#fff"/>
    <path id="Path_3185" data-name="Path 3185" d="M631.182,64.967c.2,12.886-16.732,27-16.732,27-18.693-16.675-16.742-27-16.742-27a16.737,16.737,0,1,1,33.473,0m-8.293,0A8.438,8.438,0,1,0,614.45,73.4a8.438,8.438,0,0,0,8.439-8.429" transform="translate(7.232 0)" fill="#edac4a"/>
    <path id="Path_3186" data-name="Path 3186" d="M622,139.187a42.711,42.711,0,1,1-42.711-42.711v42.711Z" transform="translate(1.214 4.754)" fill="#ffe1a4"/>
    <path id="Path_3187" data-name="Path 3187" d="M615.293,138.635a36.56,36.56,0,1,1-36.559-36.559v36.559Z" transform="translate(1.766 5.306)" fill="#edac4a"/>
    <path id="Path_3188" data-name="Path 3188" d="M569.908,118.175a6.211,6.211,0,1,1-6.211-6.21,6.211,6.211,0,0,1,6.211,6.21" transform="translate(3.275 6.281)" fill="#f25c5c"/>
    <path id="Path_3189" data-name="Path 3189" d="M562.853,148.182a5.743,5.743,0,1,1-5.743-5.743,5.743,5.743,0,0,1,5.743,5.743" transform="translate(2.672 9.283)" fill="#f25c5c"/>
    <path id="Path_3190" data-name="Path 3190" d="M568.627,139.258a2.744,2.744,0,1,1-2.743-2.744,2.744,2.744,0,0,1,2.743,2.744" transform="translate(3.832 8.699)" fill="#f25c5c"/>
    <path id="Path_3191" data-name="Path 3191" d="M572.628,154.579a3.892,3.892,0,1,1-3.892-3.892,3.892,3.892,0,0,1,3.892,3.892" transform="translate(4 10.096)" fill="#f25c5c"/>
    <path id="Path_3192" data-name="Path 3192" d="M588.3,145.338a3.828,3.828,0,1,1-3.827-3.828,3.828,3.828,0,0,1,3.827,3.828" transform="translate(5.556 9.192)" fill="#f25c5c"/>
    <path id="Path_3193" data-name="Path 3193" d="M599.139,147.911a3.382,3.382,0,1,1-3.381-3.382,3.382,3.382,0,0,1,3.381,3.382" transform="translate(6.713 9.489)" fill="#f25c5c"/>
    <path id="Path_3194" data-name="Path 3194" d="M614.282,136.028h-35.73V100.3a35.722,35.722,0,0,1,35.73,35.73" transform="translate(5.351 5.131)" fill="#ffe1a4"/>
    <path id="Path_3195" data-name="Path 3195" d="M609.137,135.566H578.552V104.982a30.577,30.577,0,0,1,30.585,30.584" transform="translate(5.351 5.592)" fill="#edac4a"/>
    <path id="Path_3196" data-name="Path 3196" d="M594.555,116.525a4.7,4.7,0,1,1-4.7-4.7,4.7,4.7,0,0,1,4.7,4.7" transform="translate(6.002 6.267)" fill="#f25c5c"/>
    <path id="Path_3197" data-name="Path 3197" d="M588.248,126.2a3.488,3.488,0,1,1-3.488-3.487,3.489,3.489,0,0,1,3.488,3.487" transform="translate(5.619 7.34)" fill="#f25c5c"/>
    <path id="Path_3198" data-name="Path 3198" d="M600.009,129.3a2.6,2.6,0,1,1-2.6-2.6,2.6,2.6,0,0,1,2.6,2.6" transform="translate(6.953 7.732)" fill="#f25c5c"/>
    <path id="Path_3199" data-name="Path 3199" d="M557.528,129.134q-2.727-2.829-5.452-5.66a1.252,1.252,0,0,0-1.76.154,1.285,1.285,0,0,0,.153,1.76q2.726,2.829,5.452,5.66a1.253,1.253,0,0,0,1.76-.154,1.286,1.286,0,0,0-.153-1.76" transform="translate(2.541 7.386)" fill="#ffe1a4"/>
    <path id="Path_3200" data-name="Path 3200" d="M553.948,134.238a1.277,1.277,0,0,0-1.741-.3l-4.988,3.225a1.258,1.258,0,0,0-.3,1.741,1.276,1.276,0,0,0,1.74.3l4.988-3.225a1.26,1.26,0,0,0,.3-1.741" transform="translate(2.211 8.424)" fill="#ffe1a4"/>
    <path id="Path_3201" data-name="Path 3201" d="M562.761,125.709a1.275,1.275,0,0,0-1.454,1q-.636,3.184-1.271,6.366a1.261,1.261,0,0,0,1,1.456,1.275,1.275,0,0,0,1.454-1q.636-3.184,1.271-6.367a1.263,1.263,0,0,0-1-1.454" transform="translate(3.524 7.633)" fill="#ffe1a4"/>
    <path id="Path_3202" data-name="Path 3202" d="M572.974,129.862a1.285,1.285,0,0,0-1.607-.735l-5.326,1.385a1.253,1.253,0,0,0-.734,1.606,1.283,1.283,0,0,0,1.606.736l5.326-1.385a1.255,1.255,0,0,0,.735-1.607" transform="translate(4.038 7.966)" fill="#ffe1a4"/>
    <path id="Path_3203" data-name="Path 3203" d="M572.884,112.807a1.259,1.259,0,0,0-1.352-1.136,1.278,1.278,0,0,0-1.137,1.353l.232,5.093a1.26,1.26,0,0,0,1.353,1.136,1.276,1.276,0,0,0,1.136-1.353Z" transform="translate(4.547 6.251)" fill="#ffe1a4"/>
    <path id="Path_3204" data-name="Path 3204" d="M569.483,106.3l-4.167.81a1.363,1.363,0,0,0-.848.442,1.249,1.249,0,0,0,1.066,2.048l4.167-.81a1.36,1.36,0,0,0,.848-.442,1.25,1.25,0,0,0-1.066-2.048" transform="translate(3.934 5.72)" fill="#ffe1a4"/>
    <path id="Path_3205" data-name="Path 3205" d="M555.662,113.044a1.266,1.266,0,0,0-1.663.6l-1.628,4.048a1.25,1.25,0,0,0,2.26,1.069l1.627-4.049a1.272,1.272,0,0,0-.6-1.663" transform="translate(2.761 6.377)" fill="#ffe1a4"/>
    <path id="Path_3206" data-name="Path 3206" d="M549.467,145.054a1.249,1.249,0,0,0-2.489.218q.465,2.778.926,5.555a1.249,1.249,0,1,0,2.489-.217l-.926-5.555" transform="translate(2.238 9.428)" fill="#ffe1a4"/>
    <path id="Path_3207" data-name="Path 3207" d="M572.14,142.514l-5.672,1.273a1.385,1.385,0,0,0-.849.442,1.277,1.277,0,0,0-.287.912c.079.6.67,1.289,1.353,1.136L572.358,145a1.385,1.385,0,0,0,.848-.442,1.268,1.268,0,0,0,.287-.912c-.079-.6-.67-1.289-1.352-1.136" transform="translate(4.047 9.288)" fill="#ffe1a4"/>
    <path id="Path_3208" data-name="Path 3208" d="M577.808,139.68a1.249,1.249,0,0,0-2.489.218q.522,3.184,1.042,6.366a1.249,1.249,0,1,0,2.488-.218l-1.041-6.366" transform="translate(5.031 8.898)" fill="#ffe1a4"/>
    <path id="Path_3209" data-name="Path 3209" d="M582.189,151.549l-7.173-2.208a1.253,1.253,0,0,0-1.454,1,1.287,1.287,0,0,0,1,1.456l7.173,2.207a1.251,1.251,0,0,0,1.454-1,1.286,1.286,0,0,0-1-1.454" transform="translate(4.857 9.96)" fill="#ffe1a4"/>
    <path id="Path_3210" data-name="Path 3210" d="M593.844,139.034a1.279,1.279,0,0,0-.637-.693,1.264,1.264,0,0,0-1.664.6l-1.736,5.092a1.371,1.371,0,0,0-.042.971,1.25,1.25,0,0,0,2.3.1L593.8,140a1.374,1.374,0,0,0,.042-.97" transform="translate(6.448 8.869)" fill="#ffe1a4"/>
    <path id="Path_3211" data-name="Path 3211" d="M603.9,140.361a1.448,1.448,0,0,0-.793-.506l-4.168-1.274a1.254,1.254,0,0,0-.947.21,1.246,1.246,0,0,0-.3,1.741,1.453,1.453,0,0,0,.792.508l4.168,1.273a1.252,1.252,0,0,0,.947-.21,1.247,1.247,0,0,0,.3-1.741" transform="translate(7.214 8.9)" fill="#ffe1a4"/>
    <path id="Path_3212" data-name="Path 3212" d="M602.121,149.677a1.265,1.265,0,0,0-1.761.154l-3.124,4.515a1.343,1.343,0,0,0-.288.912,1.249,1.249,0,0,0,2.2.693l3.125-4.514a1.339,1.339,0,0,0,.287-.912,1.268,1.268,0,0,0-.44-.848" transform="translate(7.163 9.969)" fill="#ffe1a4"/>
    <path id="Path_3213" data-name="Path 3213" d="M592.722,158.033q-.58-2.546-1.158-5.093a1.243,1.243,0,0,0-.637-.694,1.28,1.28,0,0,0-.97-.041,1.262,1.262,0,0,0-.693.636,1.476,1.476,0,0,0-.042.97l1.158,5.093a1.25,1.25,0,0,0,.637.694,1.274,1.274,0,0,0,.97.041,1.258,1.258,0,0,0,.693-.636,1.469,1.469,0,0,0,.042-.97" transform="translate(6.396 10.238)" fill="#ffe1a4"/>
    <path id="Path_3214" data-name="Path 3214" d="M585.257,156.591l-6.136.566a1.249,1.249,0,0,0,.218,2.488l6.136-.565a1.249,1.249,0,0,0-.218-2.489" transform="translate(5.294 10.677)" fill="#ffe1a4"/>
    <path id="Path_3215" data-name="Path 3215" d="M586.152,161.4a1.268,1.268,0,0,0-1.742-.3q-2.371,1.91-4.745,3.821a1.249,1.249,0,1,0,1.443,2.038q2.373-1.908,4.746-3.82a1.272,1.272,0,0,0,.3-1.741" transform="translate(5.408 11.099)" fill="#ffe1a4"/>
    <path id="Path_3216" data-name="Path 3216" d="M574.668,163.88l-3.936-4.166a1.247,1.247,0,0,0-.912-.288,1.277,1.277,0,0,0-.848.442,1.256,1.256,0,0,0-.287.912,1.452,1.452,0,0,0,.44.848l3.936,4.167a1.254,1.254,0,0,0,.912.288,1.275,1.275,0,0,0,.848-.442,1.256,1.256,0,0,0,.287-.912,1.452,1.452,0,0,0-.44-.849" transform="translate(4.378 10.957)" fill="#ffe1a4"/>
    <path id="Path_3217" data-name="Path 3217" d="M564.7,158.593q-3.009.46-6.019.919A1.249,1.249,0,0,0,558.9,162l6.019-.919a1.249,1.249,0,0,0-.218-2.489" transform="translate(3.28 10.874)" fill="#ffe1a4"/>
    <path id="Path_3218" data-name="Path 3218" d="M559.538,155.7l-6.019-1.965a1.287,1.287,0,0,0-1.664.6,1.263,1.263,0,0,0,.6,1.664l6.02,1.964a1.284,1.284,0,0,0,1.663-.6,1.262,1.262,0,0,0-.6-1.663" transform="translate(2.71 10.388)" fill="#ffe1a4"/>
    <path id="Path_3219" data-name="Path 3219" d="M592.568,122.227a1.282,1.282,0,0,0-1.454,1q-.751,2.778-1.5,5.556a1.254,1.254,0,0,0,1,1.454,1.282,1.282,0,0,0,1.454-1q.751-2.778,1.5-5.556a1.256,1.256,0,0,0-1-1.454" transform="translate(6.437 7.29)" fill="#ffe1a4"/>
    <path id="Path_3220" data-name="Path 3220" d="M601.2,122.968a1.237,1.237,0,0,0-.794-.506l-3.356-.348a1.341,1.341,0,0,0-.949.21,1.282,1.282,0,0,0-.506.793,1.261,1.261,0,0,0,.21.948,1.233,1.233,0,0,0,.794.506l3.356.348a1.332,1.332,0,0,0,.948-.21,1.25,1.25,0,0,0,.3-1.741" transform="translate(7.028 7.279)" fill="#ffe1a4"/>
    <path id="Path_3221" data-name="Path 3221" d="M597.218,114.848a1.268,1.268,0,0,0-1.454,1q-.287,2.027-.572,4.052a1.25,1.25,0,0,0,2.458.452q.285-2.025.571-4.052a1.271,1.271,0,0,0-1-1.454" transform="translate(6.989 6.563)" fill="#ffe1a4"/>
    <g id="Group_2202" data-name="Group 2202" transform="translate(563.353 212.679)" style="mix-blend-mode: multiply;isolation: isolate">
      <g id="Group_2201" data-name="Group 2201">
        <g id="Group_2200" data-name="Group 2200" clip-path="url(#clip-path-6)">
          <path id="Path_3161" data-name="Path 3161" d="M590.8,236.238H567.205a7.382,7.382,0,0,1-7.36-7.359V205.288a7.382,7.382,0,0,1,7.36-7.36H590.8a7.38,7.38,0,0,1,7.358,7.36v23.591a7.38,7.38,0,0,1-7.358,7.359" transform="translate(-559.846 -197.928)" fill="#fc6011"/>
        </g>
      </g>
    </g>
    <path id="Path_3222" data-name="Path 3222" d="M585.27,110.892l-1.967-3.125a1.259,1.259,0,0,0-1.742-.3,1.279,1.279,0,0,0-.3,1.742l1.967,3.124a1.257,1.257,0,0,0,1.741.3,1.278,1.278,0,0,0,.3-1.741" transform="translate(5.596 5.815)" fill="#ffe1a4"/>
    <path id="Path_3223" data-name="Path 3223" d="M584.385,114.482a1.27,1.27,0,0,0-1.761.154q-1.394,1.79-2.792,3.577a1.25,1.25,0,0,0,1.915,1.606q1.4-1.79,2.792-3.577a1.268,1.268,0,0,0-.154-1.76" transform="translate(5.449 6.501)" fill="#ffe1a4"/>
  </g>
</svg>
